<?xml version="1.0" encoding="UTF-8" standalone="no"?>
<!DOCTYPE svg PUBLIC "-//W3C//DTD SVG 1.1//EN"
 "http://www.w3.org/Graphics/SVG/1.1/DTD/svg11.dtd">
<!-- Generated by graphviz version 2.44.0 (0)
 -->
<!-- Title: G Pages: 1 -->
<svg width="494pt" height="44pt"
 viewBox="0.00 0.00 494.00 44.00" xmlns="http://www.w3.org/2000/svg" xmlns:xlink="http://www.w3.org/1999/xlink">
<g id="graph0" class="graph" transform="scale(1 1) rotate(0) translate(4 40)">
<title>G</title>
<polygon fill="white" stroke="transparent" points="-4,4 -4,-40 490,-40 490,4 -4,4"/>
<!-- aws_eip.lb -->
<g id="node1" class="node">
<title>aws_eip.lb</title>
<polygon fill="none" stroke="black" points="258,-36 178,-36 178,0 258,0 258,-36"/>
<text text-anchor="middle" x="218" y="-14.3" font-family="sans-serif" font-size="14.00">aws_eip.lb</text>
</g>
<!-- aws_instance.myec2 -->
<g id="node2" class="node">
<title>aws_instance.myec2</title>
<polygon fill="none" stroke="black" points="142,-36 0,-36 0,0 142,0 142,-36"/>
<text text-anchor="middle" x="71" y="-14.3" font-family="sans-serif" font-size="14.00">aws_instance.myec2</text>
</g>
<!-- aws_eip.lb&#45;&gt;aws_instance.myec2 -->
<g id="edge1" class="edge">
<title>aws_eip.lb&#45;&gt;aws_instance.myec2</title>
<path fill="none" stroke="black" d="M177.76,-18C169.72,-18 160.98,-18 152.08,-18"/>
<polygon fill="black" stroke="black" points="152,-14.5 142,-18 152,-21.5 152,-14.5"/>
</g>
<!-- aws_security_group.allow_tls -->
<g id="node3" class="node">
<title>aws_security_group.allow_tls</title>
<polygon fill="none" stroke="black" points="486,-36 294,-36 294,0 486,0 486,-36"/>
<text text-anchor="middle" x="390" y="-14.3" font-family="sans-serif" font-size="14.00">aws_security_group.allow_tls</text>
</g>
<!-- aws_security_group.allow_tls&#45;&gt;aws_eip.lb -->
<g id="edge2" class="edge">
<title>aws_security_group.allow_tls&#45;&gt;aws_eip.lb</title>
<path fill="none" stroke="black" d="M293.56,-18C284.93,-18 276.45,-18 268.47,-18"/>
<polygon fill="black" stroke="black" points="268.31,-14.5 258.31,-18 268.31,-21.5 268.31,-14.5"/>
</g>
</g>
</svg>